# AST/ASF file generated using VICON BodyLanguage
# -----------------------------------------------
:version 1.10
:name VICON
:units
  mass 1.0
  length 0.45
  angle deg
:documentation
   .ast/.asf automatically generated from VICON data using
   VICON BodyBuilder and BodyLanguage model FoxedUp or BRILLIANT.MOD
:root
   order TX TY TZ RX RY RZ
   axis XYZ
   position 0 0 0  
   orientation 0 0 0 
:bonedata
  begin
     id 1 
     name lhipjoint
     direction 0.570549 -0.739093 0.358072 
     length 2.41801 
     axis 0 0 0  XYZ
  end
  begin
     id 2 
     name lfemur
     direction 0.34202 -0.939693 0  
     length 7.44434  
     axis 0 0 20  XYZ
    dof rx ry rz
    limits (-160.0 20.0)
           (-70.0 70.0)
           (-60.0 70.0)
  end
  begin
     id 3 
     name ltibia
     direction 0.34202 -0.939693 0   
     length 7.60047   
     axis 0 0 20   XYZ
    dof rx
    limits (-10.0 170.0)
  end
  begin
     id 4 
     name lfoot
     direction 0.0909041 -0.249757 0.964032   
     length 2.03437   
     axis -90 7.62852e-016 20   XYZ
    dof rx rz
    limits (-45.0 90.0)
           (-70.0 20.0)
  end
  begin
     id 5 
     name ltoes
     direction 1.53547e-011 -4.2174e-011 1   
     length 1.02054   
     axis -90 7.62852e-016 20   XYZ
    dof rx
    limits (-90.0 20.0)
  end
  begin
     id 6 
     name rhipjoint
     direction -0.558096 -0.746754 0.361784   
     length 2.3932  
     axis 0 0 0  XYZ 
  end
  begin
     id 7 
     name rfemur
     direction -0.34202 -0.939693 0   
     length 7.3886   
     axis 0 0 -20   XYZ
    dof rx ry rz
    limits (-160.0 20.0)
           (-70.0 70.0)
           (-70.0 60.0)
  end
  begin
     id 8 
     name rtibia
     direction -0.34202 -0.939693 0   
     length 7.4839   
     axis 0 0 -20   XYZ
    dof rx
    limits (-10.0 170.0)
 end
 begin
     id 9 
     name rfoot
     direction -0.114619 -0.314914 0.942174   
     length 2.25127  
     axis -90 -7.62852e-016 -20   XYZ
    dof rx rz
    limits (-45.0 90.0)
           (-20.0 70.0)
  end
  begin
     id 10 
     name rtoes
     direction -1.53518e-011 -4.21881e-011 1   
     length 1.11821   
     axis -90 -7.62852e-016 -20   XYZ
    dof rx
    limits (-90.0 20.0)
  end
  begin
     id 11 
     name lowerback
     direction -0.00902269 0.996426 -0.0839821   
     length 2.25052   
     axis 0 0 0   XYZ
    dof rx ry rz
    limits (-20.0 45.0)
           (-30.0 30.0)
           (-30.0 30.0)
  end
  begin
     id 12 
     name upperback
     direction 0.0370973 0.999169 -0.0168941   
     length 2.24876   
     axis 0 0 0   XYZ
    dof rx ry rz
    limits (-20.0 45.0)
           (-30.0 30.0)
           (-30.0 30.0)
  end
  begin
     id 13 
     name thorax
     direction 0.0402726 0.998931 0.0227027   
     length 2.26408   
     axis 0 0 0   XYZ
    dof rx ry rz
    limits (-20.0 45.0)
           (-30.0 30.0)
           (-30.0 30.0)
  end
  begin
     id 14 
     name lowerneck
     direction -0.0733697 0.98508 0.155675   
     length 1.58204   
     axis 0 0 0   XYZ
    dof rx ry rz
    limits (-20.0 45.0)
           (-30.0 30.0)
           (-30.0 30.0)
  end
  begin
     id 15 
     name upperneck
     direction 0.0426554 0.993501 -0.105526   
     length 1.61222   
     axis 0 0 0   XYZ
    dof rx ry rz
    limits (-20.0 45.0)
           (-30.0 30.0)
           (-30.0 30.0)
  end
  begin
     id 16
     name head
     direction 0.020792 0.998384 -0.0528868  
     length 1.61527  
     axis 0 0 0   XYZ
    dof rx ry rz
    limits (-20.0 45.0)
           (-30.0 30.0)
           (-30.0 30.0)
  end
  begin
     id 17 
     name lclavicle
     direction 0.967109 0.155462 -0.201325  
     length 3.59357  
     axis 0 0 0   XYZ
    dof ry rz
    limits (-20.0 10.0)
           (0.0 20.0)
  end
  begin
     id 18 
     name lhumerus
     direction 1 -4.48968e-011 2.38195e-027   
     length 5.38154   
     axis 180 -30 -90   XYZ
    dof rx ry rz
    limits (-60.0 90.0)
           (-90.0 90.0)
           (-90.0 90.0)
  end
  begin
     id 19
     name lradius
     direction 1 -4.48961e-011 4.85371e-027   
     length 3.33312   
     axis 180 -30 -90   XYZ
    dof rx
    limits (-10.0 170.0)
  end
  begin
     id 20
     name lwrist
     direction 1 -4.48961e-011 4.76515e-027   
     length 1.66656   
     axis -3.27502e-015 90 90   XYZ
    dof ry
    limits (-180.0 0.0)
 end
  begin
     id 21 
     name lhand
     direction 1 -4.48951e-011 9.53074e-027   
     length 0.710789   
     axis -6.08098e-015 90 90   XYZ
    dof rx rz
    limits (-90.0 90.0)
           (-45.0 45.0)
  end
  begin
     id 22 
     name lfingers
     direction 1 -4.48953e-011 1.90613e-026   
     length 0.573057   
     axis -1.21619e-014 90 90   XYZ
    dof rx
    limits (0.0 90.0)
  end
  begin
     id 23
     name lthumb
     direction 0.707107 -6.34973e-011 0.707107   
     length 0.822798   
     axis -90 45 -9.86923e-015   XYZ
    dof rx rz
    limits (-45.0 45.0)
           (-45.0 45.0)
  end
  begin
     id 24 
     name rclavicle
     direction -0.9585 0.265289 -0.104398   
     length 3.42039  
     axis 0 0 0   XYZ 
    dof ry rz
    limits (-10.0 20.0)
           (-20.0 0.0)
  end
  begin
     id 25 
     name rhumerus
     direction -1 -4.48977e-011 2.21478e-027  
     length 5.16954   
     axis 180 30 90   XYZ
    dof rx ry rz
    limits (-90.0 60.0)
           (-90.0 90.0)
           (-90.0 90.0)
  end
  begin
     id 26 
     name rradius
     direction -1 -4.48967e-011 5.63677e-027   
     length 3.38287   
     axis 180 30 90   XYZ
    dof rx
    limits (-10.0 170.0)
  end
  begin
     id 27 
     name rwrist
     direction -1 -4.48967e-011 4.76501e-027   
     length 1.69144   
     axis -3.27502e-015 -90 -90   XYZ
    dof ry
    limits (-180.0 0.0)
  end
  begin
     id 28
     name rhand
     direction -1 -4.48902e-011 9.53292e-027   
     length 0.817967   
     axis -6.08098e-015 -90 -90   XYZ
    dof rx rz
    limits (-90.0 90.0)
           (-45.0 45.0)
  end
  begin
     id 29
     name rfingers
     direction -1 -4.49012e-011 1.90561e-026   
     length 0.659466   
     axis -1.21619e-014 -90 -90   XYZ
    dof rx
    limits (0.0 90.0)
  end
  begin
     id 30
     name rthumb
     direction -0.707107 -6.34944e-011 0.707107   
     length 0.946865   
     axis -90 -45 9.86923e-015   XYZ
    dof rx rz
    limits (-45.0 45.0)
           (-45.0 45.0)
  end
:hierarchy
  begin
    root lhipjoint rhipjoint lowerback
    lhipjoint lfemur
    lfemur ltibia
    ltibia lfoot
    lfoot ltoes
    rhipjoint rfemur
    rfemur rtibia
    rtibia rfoot
    rfoot rtoes
    lowerback upperback
    upperback thorax
    thorax lowerneck lclavicle rclavicle
    lowerneck upperneck
    upperneck head
    lclavicle lhumerus
    lhumerus lradius
    lradius lwrist
    lwrist lhand lthumb
    lhand lfingers
    rclavicle rhumerus
    rhumerus rradius
    rradius rwrist
    rwrist rhand rthumb
    rhand rfingers
  end

#!OML:ASF F:\twosubjects\two\wednesday\Session 1\Justin1.ASF
:FULLY-SPECIFIED
:DEGREES
149
root 4.3695 17.7517 -1.46132 -176.55 1.69646 -178.697
lowerback -0.1998 0.473588 -0.762132
upperback 1.04208 0.653039 1.68861
thorax 1.15118 0.324325 2.16593
lowerneck -18.3199 -3.6335 -9.93854
upperneck 20.6972 -3.21601 5.75373
head 9.86994 -1.48866 3.24944
rclavicle -1.31695e-015 1.19271e-015
rhumerus -32.4901 -7.87963 -82.8287
rradius 30.1771
rwrist -11.1037
rhand -11.6962 19.269
rfingers 7.12502
rthumb 14.3497 -10.2151
lclavicle -1.31695e-015 1.19271e-015
lhumerus -36.0143 14.2376 81.0044
lradius 23.3683
lwrist -15.1399
lhand 2.39894 37.7909
lfingers 7.12502
lthumb 27.8861 65.7408
rfemur -1.92669 1.27677 23.3584
rtibia 50.1397
rfoot 18.1665 -6.56284
rtoes 17.567
lfemur -22.3823 0.810898 -19.9537
ltibia 25.2633
lfoot -4.42494 -5.64817
ltoes -8.7507
150
root 4.35463 17.7755 -1.61613 -176.598 1.84955 -179.084
lowerback -0.0457491 0.372808 -1.11416
upperback 0.952619 0.518416 1.69147
thorax 0.976023 0.254655 2.36341
lowerneck -18.0628 -3.50573 -10.1727
upperneck 20.607 -3.00897 5.8351
head 9.77789 -1.40239 3.34611
rclavicle -3.8266e-015 2.78299e-015
rhumerus -32.6757 -7.20767 -82.9178
rradius 29.9607
rwrist -10.9593
rhand -11.1494 19.532
rfingers 7.12502
rthumb 14.8766 -9.91387
lclavicle -3.8266e-015 2.78299e-015
lhumerus -36.3528 13.703 81.3999
lradius 24.1098
lwrist -14.5525
lhand 2.4258 37.8084
lfingers 7.12502
lthumb 27.9117 65.7541
rfemur -3.68312 1.07061 22.6799
rtibia 52.7427
rfoot 20.488 -7.69499
rtoes 18.9669
lfemur -21.5345 0.944113 -20.4964
ltibia 24.8584
lfoot -4.5794 -5.7701
ltoes -8.31571
151
root 4.3395 17.7938 -1.77312 -176.723 1.95609 -179.47
lowerback 0.0477544 0.268982 -1.44526
upperback 1.01667 0.379746 1.65973
thorax 0.994425 0.181306 2.51565
lowerneck -18.0148 -3.34689 -10.2111
upperneck 20.5548 -2.77155 5.79521
head 9.72917 -1.3002 3.37048
rclavicle 5.66536e-015 1.51076e-014
rhumerus -32.7914 -6.46095 -83.1416
rradius 30.0415
rwrist -11.0566
rhand -10.689 19.85
rfingers 7.12502
rthumb 15.3201 -9.56256
lclavicle 5.66536e-015 1.51076e-014
lhumerus -36.2197 13.1471 81.8101
lradius 24.643
lwrist -13.9947
lhand 2.33313 37.7793
lfingers 7.12502
lthumb 27.8231 65.7394
rfemur -5.32769 0.687717 22.0186
rtibia 55.2228
rfoot 22.5569 -8.1521
rtoes 18.5166
lfemur -20.6045 1.04994 -21.031
ltibia 24.5071
lfoot -4.81666 -5.89001
ltoes -7.33776
152
root 4.32118 17.8062 -1.92874 -176.884 1.84089 -179.981
lowerback 0.325336 0.17737 -1.92363
upperback 1.04935 0.254885 1.61279
thorax 0.877653 0.115332 2.73462
lowerneck -18.3264 -3.30314 -10.1681
upperneck 20.7071 -2.64573 5.59466
head 9.82669 -1.2608 3.31147
rclavicle -3.97569e-015 7.95139e-016
rhumerus -33.0338 -6.1949 -83.1186
rradius 30.2372
rwrist -11.0429
rhand -10.9799 19.8449
rfingers 7.12502
rthumb 15.0398 -9.58879
lclavicle -3.97569e-015 7.95139e-016
lhumerus -35.8482 12.7162 82.209
lradius 24.7227
lwrist -13.6772
lhand 2.06598 37.6455
lfingers 7.12502
lthumb 27.5677 65.6467
rfemur -6.82878 0.0328918 21.211
rtibia 57.5703
rfoot 23.4841 -8.03998
rtoes 16.8297
lfemur -19.6675 0.881985 -21.7234
ltibia 24.1366
lfoot -4.97998 -5.88603
ltoes -7.19856
153
root 4.31362 17.8202 -2.07852 -176.966 1.76017 -180.644
lowerback 0.87002 0.152016 -2.7697
upperback 0.853922 0.203985 1.57558
thorax 0.373044 0.0919201 3.17065
lowerneck -18.5425 -3.34243 -10.3512
upperneck 20.9864 -2.63739 5.67622
head 9.97012 -1.25974 3.37822
rclavicle 1.98785e-016 -5.56597e-015
rhumerus -33.5867 -6.21657 -82.864
rradius 30.3054
rwrist -10.8443
rhand -11.7622 20.7488
rfingers 7.12502
rthumb 14.2861 -8.73976
lclavicle 1.98785e-016 -5.56597e-015
lhumerus -35.5555 12.1739 82.6032
lradius 24.4908
lwrist -13.3143
lhand 1.77722 37.3217
lfingers 7.12502
lthumb 27.2915 65.3666
rfemur -8.38709 -0.607634 20.3015
rtibia 59.8305
rfoot 22.5522 -8.41436
rtoes 17.6452
lfemur -18.8361 0.710024 -22.543
ltibia 23.7613
lfoot -5.04127 -5.85203
ltoes -5.67203
